<svg width="107" height="69" viewBox="0 0 107 69" fill="none" xmlns="http://www.w3.org/2000/svg">
<rect x="0.390625" y="0.0667725" width="106" height="68" rx="4" fill="#E7E3FC" fill-opacity="0.02"/>
<rect x="5.39062" y="24.6745" width="18" height="2.87399" rx="1.43699" fill="#E7E3FC" fill-opacity="0.26"/>
<rect x="9.39062" y="6.12628" width="10" height="10" rx="2" fill="#E7E3FC" fill-opacity="0.26"/>
<rect x="5.39062" y="35.5485" width="18" height="2.87399" rx="1.43699" fill="#E7E3FC" fill-opacity="0.26"/>
<rect x="5.39062" y="46.4224" width="18" height="2.87399" rx="1.43699" fill="#E7E3FC" fill-opacity="0.26"/>
<rect x="5.39062" y="57.2964" width="18" height="2.87399" rx="1.43699" fill="#E7E3FC" fill-opacity="0.26"/>
<rect x="35.6621" y="5.38007" width="65" height="8.06667" rx="1.5" stroke="#E7E3FC" stroke-opacity="0.12"/>
<rect x="38.1426" y="7.14667" width="4" height="4.53333" rx="1" fill="#E7E3FC" fill-opacity="0.26"/>
<rect x="82.1426" y="7.14667" width="4" height="4.53333" rx="1" fill="#E7E3FC" fill-opacity="0.26"/>
<rect x="88.1426" y="7.14667" width="4" height="4.53333" rx="1" fill="#E7E3FC" fill-opacity="0.26"/>
<rect x="93.1426" y="7.14667" width="4" height="4.53333" rx="1" fill="#E7E3FC" fill-opacity="0.26"/>
<rect x="60.5" y="20.7746" width="40" height="17.1333" rx="1.5" stroke="#E7E3FC" stroke-opacity="0.12"/>
<rect x="35.5" y="20.2824" width="18.4118" height="17.1333" rx="1.5" stroke="#E7E3FC" stroke-opacity="0.12"/>
<rect x="35.6621" y="44.3078" width="65" height="17.1333" rx="1.5" stroke="#E7E3FC" stroke-opacity="0.12"/>
</svg>
