<svg width="106" height="69" viewBox="0 0 106 69" fill="none" xmlns="http://www.w3.org/2000/svg">
<g clip-path="url(#clip0_2270_141328)">
<path d="M102 0.284363H4C1.79086 0.284363 0 2.07522 0 4.28436V64.2844C0 66.4935 1.79086 68.2844 4 68.2844H102C104.209 68.2844 106 66.4935 106 64.2844V4.28436C106 2.07522 104.209 0.284363 102 0.284363Z" fill="#3A3541" fill-opacity="0.02"/>
<path d="M83.7939 5.0976H21.7939C20.6894 5.0976 19.7939 5.99303 19.7939 7.0976V12.1643C19.7939 13.2688 20.6894 14.1643 21.7939 14.1643H83.7939C84.8985 14.1643 85.7939 13.2688 85.7939 12.1643V7.0976C85.7939 5.99303 84.8985 5.0976 83.7939 5.0976Z" fill="#3A3541" fill-opacity="0.08"/>
<path d="M25.7744 7.3642H23.7744C23.2221 7.3642 22.7744 7.81191 22.7744 8.3642V10.8975C22.7744 11.4498 23.2221 11.8975 23.7744 11.8975H25.7744C26.3267 11.8975 26.7744 11.4498 26.7744 10.8975V8.3642C26.7744 7.81191 26.3267 7.3642 25.7744 7.3642Z" fill="#3A3541" fill-opacity="0.16"/>
<path d="M69.7744 7.3642H67.7744C67.2221 7.3642 66.7744 7.81191 66.7744 8.3642V10.8975C66.7744 11.4498 67.2221 11.8975 67.7744 11.8975H69.7744C70.3267 11.8975 70.7744 11.4498 70.7744 10.8975V8.3642C70.7744 7.81191 70.3267 7.3642 69.7744 7.3642Z" fill="#3A3541" fill-opacity="0.16"/>
<path d="M75.7744 7.3642H73.7744C73.2221 7.3642 72.7744 7.81191 72.7744 8.3642V10.8975C72.7744 11.4498 73.2221 11.8975 73.7744 11.8975H75.7744C76.3267 11.8975 76.7744 11.4498 76.7744 10.8975V8.3642C76.7744 7.81191 76.3267 7.3642 75.7744 7.3642Z" fill="#3A3541" fill-opacity="0.16"/>
<path d="M81.7744 7.3642H79.7744C79.2221 7.3642 78.7744 7.81191 78.7744 8.3642V10.8975C78.7744 11.4498 79.2221 11.8975 79.7744 11.8975H81.7744C82.3267 11.8975 82.7744 11.4498 82.7744 10.8975V8.3642C82.7744 7.81191 82.3267 7.3642 81.7744 7.3642Z" fill="#3A3541" fill-opacity="0.16"/>
<path d="M84.2061 20.4921H47.2061C46.1015 20.4921 45.2061 21.3875 45.2061 22.4921V36.6254C45.2061 37.73 46.1015 38.6254 47.2061 38.6254H84.2061C85.3106 38.6254 86.2061 37.73 86.2061 36.6254V22.4921C86.2061 21.3875 85.3106 20.4921 84.2061 20.4921Z" fill="#3A3541" fill-opacity="0.08"/>
<path d="M37.2057 20.4921H21.7939C20.6894 20.4921 19.7939 21.3875 19.7939 22.4921V36.6254C19.7939 37.73 20.6894 38.6254 21.7939 38.6254H37.2057C38.3103 38.6254 39.2057 37.73 39.2057 36.6254V22.4921C39.2057 21.3875 38.3103 20.4921 37.2057 20.4921Z" fill="#3A3541" fill-opacity="0.08"/>
<path d="M84.206 44.0253H21.7939C20.6894 44.0253 19.7939 44.9207 19.7939 46.0253V60.1586C19.7939 61.2632 20.6894 62.1586 21.7939 62.1586H84.206C85.3106 62.1586 86.206 61.2632 86.206 60.1586V46.0253C86.206 44.9207 85.3106 44.0253 84.206 44.0253Z" fill="#3A3541" fill-opacity="0.08"/>
</g>
<defs>
<clipPath id="clip0_2270_141328">
<rect width="106" height="69" fill="white"/>
</clipPath>
</defs>
</svg>
