<svg width="106" height="69" viewBox="0 0 106 69" fill="none" xmlns="http://www.w3.org/2000/svg">
<g clip-path="url(#clip0_2270_141581)">
<path d="M102 0.284424H4C1.79086 0.284424 0 2.07528 0 4.28442V64.2844C0 66.4936 1.79086 68.2844 4 68.2844H102C104.209 68.2844 106 66.4936 106 64.2844V4.28442C106 2.07528 104.209 0.284424 102 0.284424Z" fill="#8692D0" fill-opacity="0.04"/>
<path d="M83.7939 5.09766H21.7939C20.6894 5.09766 19.7939 5.99309 19.7939 7.09766V12.1643C19.7939 13.2689 20.6894 14.1643 21.7939 14.1643H83.7939C84.8985 14.1643 85.7939 13.2689 85.7939 12.1643V7.09766C85.7939 5.99309 84.8985 5.09766 83.7939 5.09766Z" fill="#8692D0" fill-opacity="0.08"/>
<path d="M25.7744 7.36426H23.7744C23.2221 7.36426 22.7744 7.81197 22.7744 8.36426V10.8976C22.7744 11.4499 23.2221 11.8976 23.7744 11.8976H25.7744C26.3267 11.8976 26.7744 11.4499 26.7744 10.8976V8.36426C26.7744 7.81197 26.3267 7.36426 25.7744 7.36426Z" fill="#8692D0" fill-opacity="0.16"/>
<path d="M69.7744 7.36426H67.7744C67.2221 7.36426 66.7744 7.81197 66.7744 8.36426V10.8976C66.7744 11.4499 67.2221 11.8976 67.7744 11.8976H69.7744C70.3267 11.8976 70.7744 11.4499 70.7744 10.8976V8.36426C70.7744 7.81197 70.3267 7.36426 69.7744 7.36426Z" fill="#8692D0" fill-opacity="0.16"/>
<path d="M75.7744 7.36426H73.7744C73.2221 7.36426 72.7744 7.81197 72.7744 8.36426V10.8976C72.7744 11.4499 73.2221 11.8976 73.7744 11.8976H75.7744C76.3267 11.8976 76.7744 11.4499 76.7744 10.8976V8.36426C76.7744 7.81197 76.3267 7.36426 75.7744 7.36426Z" fill="#8692D0" fill-opacity="0.16"/>
<path d="M81.7744 7.36426H79.7744C79.2221 7.36426 78.7744 7.81197 78.7744 8.36426V10.8976C78.7744 11.4499 79.2221 11.8976 79.7744 11.8976H81.7744C82.3267 11.8976 82.7744 11.4499 82.7744 10.8976V8.36426C82.7744 7.81197 82.3267 7.36426 81.7744 7.36426Z" fill="#8692D0" fill-opacity="0.16"/>
<path d="M84.2061 20.4921H47.2061C46.1015 20.4921 45.2061 21.3875 45.2061 22.4921V36.6254C45.2061 37.7299 46.1015 38.6254 47.2061 38.6254H84.2061C85.3106 38.6254 86.2061 37.7299 86.2061 36.6254V22.4921C86.2061 21.3875 85.3106 20.4921 84.2061 20.4921Z" fill="#8692D0" fill-opacity="0.08"/>
<path d="M37.2057 20.4921H21.7939C20.6894 20.4921 19.7939 21.3875 19.7939 22.4921V36.6254C19.7939 37.7299 20.6894 38.6254 21.7939 38.6254H37.2057C38.3103 38.6254 39.2057 37.7299 39.2057 36.6254V22.4921C39.2057 21.3875 38.3103 20.4921 37.2057 20.4921Z" fill="#8692D0" fill-opacity="0.08"/>
<path d="M84.206 44.0253H21.7939C20.6894 44.0253 19.7939 44.9207 19.7939 46.0253V60.1586C19.7939 61.2631 20.6894 62.1586 21.7939 62.1586H84.206C85.3106 62.1586 86.206 61.2631 86.206 60.1586V46.0253C86.206 44.9207 85.3106 44.0253 84.206 44.0253Z" fill="#8692D0" fill-opacity="0.08"/>
</g>
<defs>
<clipPath id="clip0_2270_141581">
<rect width="106" height="69" fill="white"/>
</clipPath>
</defs>
</svg>
