<svg width="106" height="69" viewBox="0 0 106 69" fill="none" xmlns="http://www.w3.org/2000/svg">
<g clip-path="url(#clip0_2270_141465)">
<path d="M102 0.284424H4C1.79086 0.284424 0 2.07528 0 4.28442V64.2844C0 66.4936 1.79086 68.2844 4 68.2844H102C104.209 68.2844 106 66.4936 106 64.2844V4.28442C106 2.07528 104.209 0.284424 102 0.284424Z" fill="#3A3541" fill-opacity="0.02"/>
<path d="M97.4506 4.53076H76.8896C75.7851 4.53076 74.8896 5.42619 74.8896 6.53076V61.8644C74.8896 62.9689 75.7851 63.8644 76.8896 63.8644H97.4506C98.5552 63.8644 99.4506 62.9689 99.4506 61.8644V6.53076C99.4506 5.42619 98.5552 4.53076 97.4506 4.53076Z" fill="#3A3541" fill-opacity="0.08"/>
<path d="M93.1535 17.6654H81.1881C80.5929 17.6654 80.1104 18.1479 80.1104 18.7432C80.1104 19.3384 80.5929 19.8209 81.1881 19.8209H93.1535C93.7487 19.8209 94.2313 19.3384 94.2313 18.7432C94.2313 18.1479 93.7487 17.6654 93.1535 17.6654Z" fill="#3A3541" fill-opacity="0.16"/>
<path d="M93.1528 26.6208H85.2389C84.6437 26.6208 84.1611 27.1033 84.1611 27.6985C84.1611 28.2938 84.6437 28.7763 85.2389 28.7763H93.1528C93.748 28.7763 94.2305 28.2938 94.2305 27.6985C94.2305 27.1033 93.748 26.6208 93.1528 26.6208Z" fill="#3A3541" fill-opacity="0.16"/>
<path d="M93.1533 35.5763H82.6881C82.0929 35.5763 81.6104 36.0588 81.6104 36.654C81.6104 37.2493 82.0929 37.7318 82.6881 37.7318H93.1533C93.7485 37.7318 94.2311 37.2493 94.2311 36.654C94.2311 36.0588 93.7485 35.5763 93.1533 35.5763Z" fill="#3A3541" fill-opacity="0.16"/>
<path d="M93.1529 44.5319H89.1031C88.5079 44.5319 88.0254 45.0144 88.0254 45.6097C88.0254 46.2049 88.5079 46.6874 89.1031 46.6874H93.1529C93.7481 46.6874 94.2307 46.2049 94.2307 45.6097C94.2307 45.0144 93.7481 44.5319 93.1529 44.5319Z" fill="#3A3541" fill-opacity="0.16"/>
<path d="M93.1532 53.4875H87.0621C86.4669 53.4875 85.9844 53.97 85.9844 54.5652C85.9844 55.1605 86.4669 55.643 87.0621 55.643H93.1532C93.7484 55.643 94.2309 55.1605 94.2309 54.5652C94.2309 53.97 93.7484 53.4875 93.1532 53.4875Z" fill="#3A3541" fill-opacity="0.16"/>
<path d="M66.8901 4.53076H7.30176C6.19719 4.53076 5.30176 5.42619 5.30176 6.53076V61.8644C5.30176 62.9689 6.19719 63.8644 7.30176 63.8644H66.8901C67.9946 63.8644 68.8901 62.9689 68.8901 61.8644V6.53076C68.8901 5.42619 67.9946 4.53076 66.8901 4.53076Z" fill="#3A3541" fill-opacity="0.08"/>
<path d="M59.631 14.8976H47.6656C47.0704 14.8976 46.5879 15.3801 46.5879 15.9754C46.5879 16.5706 47.0704 17.0531 47.6656 17.0531H59.631C60.2263 17.0531 60.7088 16.5706 60.7088 15.9754C60.7088 15.3801 60.2263 14.8976 59.631 14.8976Z" fill="#3A3541" fill-opacity="0.16"/>
<path d="M59.6316 23.853H28.3551C27.7599 23.853 27.2773 24.3355 27.2773 24.9307C27.2773 25.526 27.7599 26.0085 28.3551 26.0085H59.6316C60.2268 26.0085 60.7093 25.526 60.7093 24.9307C60.7093 24.3355 60.2268 23.853 59.6316 23.853Z" fill="#3A3541" fill-opacity="0.16"/>
<path d="M59.6312 32.8085H19.7867C19.1915 32.8085 18.709 33.291 18.709 33.8862C18.709 34.4815 19.1915 34.964 19.7867 34.964H59.6312C60.2265 34.964 60.709 34.4815 60.709 33.8862C60.709 33.291 60.2265 32.8085 59.6312 32.8085Z" fill="#3A3541" fill-opacity="0.16"/>
<path d="M59.6316 41.7638H28.3551C27.7599 41.7638 27.2773 42.2463 27.2773 42.8415C27.2773 43.4368 27.7599 43.9193 28.3551 43.9193H59.6316C60.2268 43.9193 60.7093 43.4368 60.7093 42.8415C60.7093 42.2463 60.2268 41.7638 59.6316 41.7638Z" fill="#3A3541" fill-opacity="0.16"/>
<path d="M59.6314 50.7196H55.901C55.3058 50.7196 54.8232 51.2021 54.8232 51.7973C54.8232 52.3926 55.3058 52.8751 55.901 52.8751H59.6314C60.2266 52.8751 60.7091 52.3926 60.7091 51.7973C60.7091 51.2021 60.2266 50.7196 59.6314 50.7196Z" fill="#3A3541" fill-opacity="0.16"/>
</g>
<defs>
<clipPath id="clip0_2270_141465">
<rect width="106" height="69" fill="white"/>
</clipPath>
</defs>
</svg>
