<svg width="107" height="58" viewBox="0 0 107 55" fill="none" xmlns="http://www.w3.org/2000/svg">
<g opacity="0.2">
<path d="M43.1875 32.8427V20.6552C43.1875 20.1579 43.385 19.681 43.7367 19.3294C44.0883 18.9777 44.5652 18.7802 45.0625 18.7802H61.9375C62.4348 18.7802 62.9117 18.9777 63.2633 19.3294C63.615 19.681 63.8125 20.1579 63.8125 20.6552V32.8427H43.1875Z" fill="#8692D0"/>
<path d="M43.1875 32.8427V20.6552C43.1875 20.1579 43.385 19.681 43.7367 19.3294C44.0883 18.9777 44.5652 18.7802 45.0625 18.7802H61.9375C62.4348 18.7802 62.9117 18.9777 63.2633 19.3294C63.615 19.681 63.8125 20.1579 63.8125 20.6552V32.8427H43.1875Z" fill="white" fill-opacity="0.2"/>
</g>
<path d="M43.1875 32.8427V20.6552C43.1875 20.1579 43.385 19.681 43.7367 19.3294C44.0883 18.9777 44.5652 18.7802 45.0625 18.7802H61.9375C62.4348 18.7802 62.9117 18.9777 63.2633 19.3294C63.615 19.681 63.8125 20.1579 63.8125 20.6552V32.8427M55.375 22.5302H51.625M41.3125 32.8427H65.6875V34.7177C65.6875 35.215 65.49 35.6919 65.1383 36.0435C64.7867 36.3951 64.3098 36.5927 63.8125 36.5927H43.1875C42.6902 36.5927 42.2133 36.3951 41.8617 36.0435C41.51 35.6919 41.3125 35.215 41.3125 34.7177V32.8427Z" stroke="#8692D0" stroke-width="2" stroke-linecap="round" stroke-linejoin="round"/>
<path d="M43.1875 32.8427V20.6552C43.1875 20.1579 43.385 19.681 43.7367 19.3294C44.0883 18.9777 44.5652 18.7802 45.0625 18.7802H61.9375C62.4348 18.7802 62.9117 18.9777 63.2633 19.3294C63.615 19.681 63.8125 20.1579 63.8125 20.6552V32.8427M55.375 22.5302H51.625M41.3125 32.8427H65.6875V34.7177C65.6875 35.215 65.49 35.6919 65.1383 36.0435C64.7867 36.3951 64.3098 36.5927 63.8125 36.5927H43.1875C42.6902 36.5927 42.2133 36.3951 41.8617 36.0435C41.51 35.6919 41.3125 35.215 41.3125 34.7177V32.8427Z" stroke="white" stroke-opacity="0.2" stroke-width="2" stroke-linecap="round" stroke-linejoin="round"/>
</svg>
