<svg width="106" height="69" viewBox="0 0 106 69" fill="none" xmlns="http://www.w3.org/2000/svg">
<g clip-path="url(#clip0_2270_141539)">
<path d="M102 0.284424H4C1.79086 0.284424 0 2.07528 0 4.28442V64.2844C0 66.4936 1.79086 68.2844 4 68.2844H102C104.209 68.2844 106 66.4936 106 64.2844V4.28442C106 2.07528 104.209 0.284424 102 0.284424Z" fill="#3A3541" fill-opacity="0.02"/>
<path d="M97.1836 5.09766H8.81641C7.71184 5.09766 6.81641 5.99309 6.81641 7.09766V12.1643C6.81641 13.2689 7.71184 14.1643 8.81641 14.1643H97.1836C98.2882 14.1643 99.1836 13.2689 99.1836 12.1643V7.09766C99.1836 5.99309 98.2882 5.09766 97.1836 5.09766Z" fill="#3A3541" fill-opacity="0.08"/>
<path d="M14.3604 7.36426H11.3604C10.8081 7.36426 10.3604 7.81197 10.3604 8.36426V10.8976C10.3604 11.4499 10.8081 11.8976 11.3604 11.8976H14.3604C14.9126 11.8976 15.3604 11.4499 15.3604 10.8976V8.36426C15.3604 7.81197 14.9126 7.36426 14.3604 7.36426Z" fill="#3A3541" fill-opacity="0.16"/>
<path d="M80.6455 7.36426H77.6455C77.0932 7.36426 76.6455 7.81197 76.6455 8.36426V10.8976C76.6455 11.4499 77.0932 11.8976 77.6455 11.8976H80.6455C81.1978 11.8976 81.6455 11.4499 81.6455 10.8976V8.36426C81.6455 7.81197 81.1978 7.36426 80.6455 7.36426Z" fill="#3A3541" fill-opacity="0.16"/>
<path d="M87.6455 7.36426H84.6455C84.0932 7.36426 83.6455 7.81197 83.6455 8.36426V10.8976C83.6455 11.4499 84.0932 11.8976 84.6455 11.8976H87.6455C88.1978 11.8976 88.6455 11.4499 88.6455 10.8976V8.36426C88.6455 7.81197 88.1978 7.36426 87.6455 7.36426Z" fill="#3A3541" fill-opacity="0.16"/>
<path d="M94.6455 7.36426H91.6455C91.0932 7.36426 90.6455 7.81197 90.6455 8.36426V10.8976C90.6455 11.4499 91.0932 11.8976 91.6455 11.8976H94.6455C95.1978 11.8976 95.6455 11.4499 95.6455 10.8976V8.36426C95.6455 7.81197 95.1978 7.36426 94.6455 7.36426Z" fill="#3A3541" fill-opacity="0.16"/>
<path d="M97.1838 20.4922H44.1602C43.0556 20.4922 42.1602 21.3876 42.1602 22.4922V36.6255C42.1602 37.7301 43.0556 38.6255 44.1602 38.6255H97.1838C98.2883 38.6255 99.1838 37.7301 99.1838 36.6255V22.4922C99.1838 21.3876 98.2883 20.4922 97.1838 20.4922Z" fill="#3A3541" fill-opacity="0.08"/>
<path d="M31.8146 20.4922H8.81641C7.71184 20.4922 6.81641 21.3876 6.81641 22.4922V36.6255C6.81641 37.7301 7.71184 38.6255 8.81641 38.6255H31.8146C32.9192 38.6255 33.8146 37.7301 33.8146 36.6255V22.4922C33.8146 21.3876 32.9192 20.4922 31.8146 20.4922Z" fill="#3A3541" fill-opacity="0.08"/>
<path d="M97.1836 44.0254H8.81641C7.71184 44.0254 6.81641 44.9208 6.81641 46.0254V60.1587C6.81641 61.2633 7.71184 62.1587 8.81641 62.1587H97.1836C98.2882 62.1587 99.1836 61.2633 99.1836 60.1587V46.0254C99.1836 44.9208 98.2882 44.0254 97.1836 44.0254Z" fill="#3A3541" fill-opacity="0.08"/>
</g>
<defs>
<clipPath id="clip0_2270_141539">
<rect width="106" height="69" fill="white"/>
</clipPath>
</defs>
</svg>
