<svg width="42" height="42" viewBox="0 0 42 42" fill="none" xmlns="http://www.w3.org/2000/svg">
<g id="3d-select-solid">
<path id="Vector" d="M6.174 12.7645L20.489 20.7165C20.645 20.8032 20.8206 20.8487 20.9991 20.8487C21.1776 20.8487 21.3532 20.8032 21.5092 20.7165L35.875 12.7365M21 36.75V21M36.75 12.8677V29.1322C36.7501 29.3197 36.7 29.5038 36.6049 29.6654C36.5098 29.8269 36.3732 29.9601 36.2092 30.051L21.5093 38.2165C21.3534 38.3029 21.1782 38.3483 21 38.3483C20.8218 38.3483 20.6466 38.3029 20.4907 38.2165L5.79075 30.051C5.62681 29.9601 5.49019 29.8269 5.3951 29.6654C5.30001 29.5038 5.24991 29.3197 5.25 29.1322V12.8677C5.25022 12.6806 5.30047 12.4969 5.39555 12.3356C5.49062 12.1744 5.62706 12.0415 5.79075 11.9507L20.4907 3.78349C20.6466 3.69708 20.8218 3.65173 21 3.65173C21.1782 3.65173 21.3534 3.69708 21.5093 3.78349L36.2092 11.9507C36.3729 12.0415 36.5094 12.1744 36.6045 12.3356C36.6995 12.4969 36.7498 12.6806 36.75 12.8677Z" stroke="#9055FD" stroke-width="3.225" stroke-linecap="round" stroke-linejoin="round"/>
</g>
</svg>
