<svg width="42" height="42" viewBox="0 0 42 42" fill="none" xmlns="http://www.w3.org/2000/svg">
<g id="google-docs 1">
<path id="Vector" d="M12.25 12.25H29.75M12.25 21H29.75M12.25 29.75H22.75M33.25 5.25H8.75C7.82174 5.25 6.9315 5.61875 6.27513 6.27513C5.61875 6.9315 5.25 7.82174 5.25 8.75V33.25C5.25 34.1783 5.61875 35.0685 6.27513 35.7249C6.9315 36.3813 7.82174 36.75 8.75 36.75H33.25C34.1783 36.75 35.0685 36.3813 35.7249 35.7249C36.3813 35.0685 36.75 34.1783 36.75 33.25V8.75C36.75 7.82174 36.3813 6.9315 35.7249 6.27513C35.0685 5.61875 34.1783 5.25 33.25 5.25Z" stroke="#9055FD" stroke-width="3.225" stroke-linecap="round" stroke-linejoin="round"/>
</g>
</svg>
