<svg width="42" height="42" viewBox="0 0 42 42" fill="none" xmlns="http://www.w3.org/2000/svg">
<g id="laptop-charging">
<path id="Union" fill-rule="evenodd" clip-rule="evenodd" d="M7.76536 5.66529C8.11934 5.31131 8.59943 5.11245 9.10003 5.11245H32.9C33.4006 5.11245 33.8807 5.31131 34.2347 5.66529C34.5887 6.01926 34.7875 6.49935 34.7875 6.99995V23.276H7.21253V6.99995C7.21253 6.49936 7.41139 6.01926 7.76536 5.66529ZM6.81979 26.501H35.1803L20.9361 31.6374H19.25C18.514 31.6374 17.8932 32.1306 17.6999 32.8044L6.37703 36.8875C6.08554 36.8873 5.79804 36.8196 5.53709 36.6898C5.27599 36.5598 5.04855 36.3711 4.87262 36.1385C4.6967 35.9059 4.57707 35.6357 4.52313 35.3491C4.4692 35.0625 4.48239 34.7673 4.56168 34.4867L4.56173 34.4866L6.81979 26.501ZM17.6998 32.8046L6.37751 36.8875H35.6226H35.623C35.9145 36.8873 36.202 36.8196 36.463 36.6898C36.7241 36.5598 36.9515 36.3711 37.1274 36.1385C37.3034 35.9059 37.423 35.6357 37.4769 35.3491C37.5309 35.0625 37.5177 34.7672 37.4383 34.4866L35.1803 26.501L20.9364 31.6374H22.75C23.6406 31.6374 24.3625 32.3594 24.3625 33.2499C24.3625 34.1405 23.6406 34.8624 22.75 34.8624H19.25C18.3595 34.8624 17.6375 34.1405 17.6375 33.2499C17.6375 33.0954 17.6593 32.946 17.6998 32.8046ZM3.98753 6.99995V24.6649L1.45836 33.6092L1.45832 33.6094C1.24345 34.3696 1.20766 35.1692 1.35377 35.9455C1.49987 36.7219 1.82389 37.4538 2.30041 38.0839C2.77692 38.7139 3.39296 39.225 4.10019 39.577C4.80741 39.929 5.58658 40.1122 6.37655 40.1125H6.37703H35.623H35.6235C36.4135 40.1122 37.1927 39.9289 37.8999 39.577C38.6071 39.225 39.2232 38.7139 39.6997 38.0839C40.1762 37.4538 40.5002 36.7219 40.6463 35.9455C40.7924 35.1692 40.7566 34.3696 40.5418 33.6094L40.5417 33.6092L38.0125 24.6649V6.99995C38.0125 5.64404 37.4739 4.34365 36.5151 3.38487C35.5564 2.42609 34.256 1.88745 32.9 1.88745H9.10003C7.74411 1.88745 6.44372 2.42609 5.48494 3.38487C4.52616 4.34365 3.98753 5.64403 3.98753 6.99995ZM21.8268 9.53317C22.2594 8.75472 21.979 7.773 21.2005 7.34044C20.4221 6.90788 19.4403 7.18828 19.0078 7.96673L16.0905 13.2167C15.813 13.7162 15.8205 14.3252 16.1102 14.8176C16.4 15.3101 16.9287 15.6124 17.5 15.6124H21.7593L20.1733 18.4667C19.7407 19.2452 20.0211 20.2269 20.7996 20.6595C21.578 21.092 22.5597 20.8116 22.9923 20.0332L25.9095 14.7832C26.1871 14.2837 26.1796 13.6747 25.8898 13.1823C25.6001 12.6898 25.0714 12.3874 24.5 12.3874H20.2408L21.8268 9.53317Z" fill="#9055FD"/>
</g>
</svg>
