<svg width="42" height="42" viewBox="0 0 42 42" fill="none" xmlns="http://www.w3.org/2000/svg">
<g id="layout-right 1">
<path id="Vector" d="M24.9375 17.0625V36.75M36.75 17.0625H5.25M35.7 5.25H6.3C6.02152 5.25 5.75445 5.36062 5.55754 5.55754C5.36062 5.75445 5.25 6.02152 5.25 6.3V35.7C5.25 35.9785 5.36062 36.2455 5.55754 36.4425C5.75445 36.6394 6.02152 36.75 6.3 36.75H35.7C35.9785 36.75 36.2455 36.6394 36.4425 36.4425C36.6394 36.2455 36.75 35.9785 36.75 35.7V6.3C36.75 6.02152 36.6394 5.75445 36.4425 5.55754C36.2455 5.36062 35.9785 5.25 35.7 5.25Z" stroke="#9055FD" stroke-width="3.225"/>
</g>
</svg>
