<svg width="42" height="42" viewBox="0 0 42 42" fill="none" xmlns="http://www.w3.org/2000/svg">
<g id="lifebelt 1">
<path id="Vector" d="M21 38.5C30.6652 38.5 38.5 30.6652 38.5 21C38.5 11.3348 30.6652 3.5 21 3.5C11.3348 3.5 3.5 11.3348 3.5 21C3.5 30.6652 11.3348 38.5 21 38.5Z" stroke="#9055FD" stroke-width="3.225" stroke-linecap="round" stroke-linejoin="round"/>
<path id="Vector_2" d="M16.1612 26.0575L8.75 33.25M25.8387 26.0575L33.25 33.25M25.8387 15.9425L33.25 8.75M16.1612 15.9425L8.75 8.75M14 21C14 22.8565 14.7375 24.637 16.0503 25.9497C17.363 27.2625 19.1435 28 21 28C22.8565 28 24.637 27.2625 25.9497 25.9497C27.2625 24.637 28 22.8565 28 21C28 19.1435 27.2625 17.363 25.9497 16.0503C24.637 14.7375 22.8565 14 21 14C19.1435 14 17.363 14.7375 16.0503 16.0503C14.7375 17.363 14 19.1435 14 21Z" stroke="#9055FD" stroke-width="3.225" stroke-linecap="round" stroke-linejoin="round"/>
</g>
</svg>
