<svg width="16" height="8" viewBox="0 0 16 8" fill="none" xmlns="http://www.w3.org/2000/svg">
<g id="Frame" clip-path="url(#clip0_162_137143)">
<path id="XMLID_1_" d="M12.1122 4.89097C11.7531 4.89097 11.3975 4.89442 11.0384 4.89097C7.98961 4.84608 4.94084 4.8012 1.89207 4.75286C1.56061 4.7494 1.22569 4.75631 0.894231 4.72869C0.43847 4.69071 -0.0932525 4.60784 0.0137825 4.02088C0.0552153 3.78609 0.559315 3.48915 0.863157 3.47189C3.40783 3.32688 5.95595 3.2371 8.50407 3.14388C9.08413 3.12316 9.66419 3.14043 10.3064 2.82623C9.60895 2.42916 8.87351 2.08389 8.2313 1.61086C7.92746 1.38644 7.56493 0.871977 7.63398 0.585399C7.7859 -0.0499047 8.44537 0.0433189 8.88387 0.236672C10.959 1.15165 13.0582 2.02864 15.0505 3.1059C16.3245 3.79645 16.3142 4.83227 15.047 5.51591C13.3483 6.43089 11.539 7.1387 9.75396 7.88795C9.53989 7.97772 9.19462 7.76019 8.90804 7.68423C9.00472 7.39766 9.01508 7.00404 9.21188 6.84867C9.64002 6.5103 10.1648 6.29278 10.6517 6.02692C11.1627 5.7507 11.6737 5.48139 12.1847 5.20862C12.1605 5.10158 12.1364 4.99455 12.1122 4.89097Z" fill="#9055FD"/>
</g>
<defs>
<clipPath id="clip0_162_137143">
<rect width="7.81701" height="16" fill="white" transform="translate(0 7.90845) rotate(-90)"/>
</clipPath>
</defs>
</svg>
