<svg width="42" height="42" viewBox="0 0 42 42" fill="none" xmlns="http://www.w3.org/2000/svg">
<g id="1st-medal 1">
<path id="Vector" d="M24.976 18.2787L31.5 3.5M16.303 18.606L8.75 3.5M22.3317 17.584L15.4613 3.5M25.13 3.5L23.31 7.875M10.5 28C10.5 30.7848 11.6062 33.4555 13.5754 35.4246C15.5445 37.3938 18.2152 38.5 21 38.5C23.7848 38.5 26.4555 37.3938 28.4246 35.4246C30.3938 33.4555 31.5 30.7848 31.5 28C31.5 25.2152 30.3938 22.5445 28.4246 20.5754C26.4555 18.6062 23.7848 17.5 21 17.5C18.2152 17.5 15.5445 18.6062 13.5754 20.5754C11.6062 22.5445 10.5 25.2152 10.5 28Z" stroke="#16B1FF" stroke-width="3.225" stroke-linecap="round" stroke-linejoin="round"/>
<path id="Vector_2" d="M18.375 26.25L21.875 23.625V32.375" stroke="#16B1FF" stroke-width="3.225" stroke-linecap="round" stroke-linejoin="round"/>
</g>
</svg>
