<svg width="42" height="42" viewBox="0 0 42 42" fill="none" xmlns="http://www.w3.org/2000/svg">
<g id="people-tag 1">
<path id="Vector" d="M5.25 28V14C5.25 11.6794 6.17187 9.45376 7.81282 7.81282C9.45376 6.17187 11.6794 5.25 14 5.25H28C30.3206 5.25 32.5462 6.17187 34.1872 7.81282C35.8281 9.45376 36.75 11.6794 36.75 14V28C36.75 30.3206 35.8281 32.5462 34.1872 34.1872C32.5462 35.8281 30.3206 36.75 28 36.75H14C11.6794 36.75 9.45376 35.8281 7.81282 34.1872C6.17187 32.5462 5.25 30.3206 5.25 28Z" stroke="white" stroke-width="3.225"/>
<path id="Vector_2" d="M28.875 25.375C28.875 25.375 26.25 28.875 21 28.875C15.75 28.875 13.125 25.375 13.125 25.375" stroke="white" stroke-width="3.225" stroke-linecap="round" stroke-linejoin="round"/>
<path id="Vector_3" d="M14.875 17.5C14.6429 17.5 14.4204 17.4078 14.2563 17.2437C14.0922 17.0796 14 16.8571 14 16.625C14 16.3929 14.0922 16.1704 14.2563 16.0063C14.4204 15.8422 14.6429 15.75 14.875 15.75C15.1071 15.75 15.3296 15.8422 15.4937 16.0063C15.6578 16.1704 15.75 16.3929 15.75 16.625C15.75 16.8571 15.6578 17.0796 15.4937 17.2437C15.3296 17.4078 15.1071 17.5 14.875 17.5ZM27.125 17.5C26.8929 17.5 26.6704 17.4078 26.5063 17.2437C26.3422 17.0796 26.25 16.8571 26.25 16.625C26.25 16.3929 26.3422 16.1704 26.5063 16.0063C26.6704 15.8422 26.8929 15.75 27.125 15.75C27.3571 15.75 27.5796 15.8422 27.7437 16.0063C27.9078 16.1704 28 16.3929 28 16.625C28 16.8571 27.9078 17.0796 27.7437 17.2437C27.5796 17.4078 27.3571 17.5 27.125 17.5Z" fill="white" stroke="white" stroke-width="3.225" stroke-linecap="round" stroke-linejoin="round"/>
</g>
</svg>
