<svg width="42" height="42" viewBox="0 0 42 42" fill="none" xmlns="http://www.w3.org/2000/svg">
<g id="transition-up">
<path id="Union" fill-rule="evenodd" clip-rule="evenodd" d="M8.44041 6.69041C9.45077 5.68006 10.8211 5.11245 12.25 5.11245H29.75C31.1788 5.11245 32.5491 5.68006 33.5595 6.69041C34.5698 7.70077 35.1375 9.0711 35.1375 10.5V14C35.1375 14.8905 35.8594 15.6125 36.75 15.6125C37.6405 15.6125 38.3624 14.8905 38.3624 14V10.5C38.3624 8.21577 37.4551 6.02515 35.8399 4.40999C34.2247 2.79484 32.0341 1.88745 29.75 1.88745H12.25C9.96577 1.88745 7.77515 2.79484 6.15999 4.40999C4.54484 6.02515 3.63745 8.21577 3.63745 10.5V14C3.63745 14.8905 4.35939 15.6125 5.24995 15.6125C6.14051 15.6125 6.86245 14.8905 6.86245 14V10.5C6.86245 9.0711 7.43006 7.70077 8.44041 6.69041ZM22.1402 9.35974C21.5104 8.73002 20.4895 8.73002 19.8597 9.35974L14.6097 14.6097C13.98 15.2395 13.98 16.2604 14.6097 16.8902C15.2395 17.5199 16.2604 17.5199 16.8902 16.8902L19.3875 14.3929V22.8875H10.5C8.6799 22.8875 6.9344 23.6105 5.64743 24.8974C4.36046 26.1844 3.63745 27.9299 3.63745 29.75V33.25C3.63745 35.07 4.36046 36.8155 5.64743 38.1025C6.9344 39.3894 8.6799 40.1124 10.5 40.1124H31.5C33.32 40.1124 35.0655 39.3894 36.3525 38.1025C37.6394 36.8155 38.3624 35.07 38.3624 33.25V29.75C38.3624 27.9299 37.6394 26.1844 36.3525 24.8974C35.0655 23.6105 33.32 22.8875 31.5 22.8875H22.6124V14.3929L25.1097 16.8902C25.7395 17.5199 26.7604 17.5199 27.3902 16.8902C28.0199 16.2604 28.0199 15.2395 27.3902 14.6097L22.1402 9.35974ZM21.0025 26.1124C21.0016 26.1124 21.0008 26.1125 21 26.1125C20.9991 26.1125 20.9983 26.1124 20.9974 26.1124H10.5C9.53523 26.1124 8.61001 26.4957 7.92785 27.1778C7.24569 27.86 6.86245 28.7852 6.86245 29.75V33.25C6.86245 34.2147 7.24569 35.1399 7.92785 35.8221C8.61001 36.5042 9.53523 36.8875 10.5 36.8875H31.5C32.4647 36.8875 33.3899 36.5042 34.0721 35.8221C34.7542 35.1399 35.1375 34.2147 35.1375 33.25V29.75C35.1375 28.7852 34.7542 27.86 34.0721 27.1778C33.3899 26.4957 32.4647 26.1124 31.5 26.1124H21.0025Z" fill="#9055FD"/>
</g>
</svg>
