<svg width="65" height="64" viewBox="0 0 65 64" fill="none" xmlns="http://www.w3.org/2000/svg">
<g id="User">
<path id="Vector" opacity="0.2" d="M32.7502 8C27.8939 7.99858 23.1514 9.47041 19.1493 12.2211C15.1471 14.9717 12.0736 18.8718 10.3346 23.406C8.59566 27.9403 8.27315 32.8954 9.40969 37.6168C10.5462 42.3382 13.0883 46.6038 16.7002 49.85C18.2052 46.8863 20.5014 44.3973 23.3343 42.6587C26.1673 40.9201 29.4263 39.9999 32.7502 40C30.7724 40 28.839 39.4135 27.1945 38.3147C25.55 37.2159 24.2683 35.6541 23.5114 33.8268C22.7545 31.9996 22.5565 29.9889 22.9423 28.0491C23.3282 26.1093 24.2806 24.3275 25.6791 22.9289C27.0776 21.5304 28.8595 20.578 30.7993 20.1921C32.7391 19.8063 34.7498 20.0043 36.577 20.7612C38.4043 21.5181 39.9661 22.7998 41.0649 24.4443C42.1637 26.0888 42.7502 28.0222 42.7502 30C42.7502 32.6522 41.6966 35.1957 39.8213 37.0711C37.9459 38.9464 35.4023 40 32.7502 40C36.0741 39.9999 39.3331 40.9201 42.166 42.6587C44.999 44.3973 47.2952 46.8863 48.8002 49.85C52.412 46.6038 54.9541 42.3382 56.0907 37.6168C57.2272 32.8954 56.9047 27.9403 55.1658 23.406C53.4268 18.8718 50.3533 14.9717 46.3511 12.2211C42.3489 9.47041 37.6065 7.99858 32.7502 8Z" fill="currentColor"/>
<path id="Vector_2" d="M32.7502 40C38.2731 40 42.7502 35.5228 42.7502 30C42.7502 24.4772 38.2731 20 32.7502 20C27.2274 20 22.7502 24.4772 22.7502 30C22.7502 35.5228 27.2274 40 32.7502 40ZM32.7502 40C29.4262 40 26.1671 40.9189 23.3341 42.6578C20.5011 44.3967 18.205 46.8861 16.7002 49.85M32.7502 40C36.0743 40 39.3334 40.9189 42.1664 42.6578C44.9993 44.3967 47.2955 46.8861 48.8002 49.85M56.7502 32C56.7502 45.2548 46.0051 56 32.7502 56C19.4954 56 8.75024 45.2548 8.75024 32C8.75024 18.7452 19.4954 8 32.7502 8C46.0051 8 56.7502 18.7452 56.7502 32Z" stroke="currentColor" stroke-width="2" stroke-linecap="round" stroke-linejoin="round"/>
</g>
</svg>
